<svg width="52" height="52" viewBox="0 0 52 52" fill="none" xmlns="http://www.w3.org/2000/svg">
<path d="M26 0C22.5856 0 19.2047 0.689206 16.0502 2.02827C12.8958 3.36733 10.0295 5.33002 7.61522 7.80429C2.73928 12.8013 0 19.5787 0 26.6455C0 38.4228 7.462 48.4149 17.784 51.9587C19.084 52.1719 19.5 51.3459 19.5 50.6264V46.1234C12.298 47.7221 10.764 42.5529 10.764 42.5529C9.568 39.462 7.878 38.636 7.878 38.636C5.512 36.984 8.06 37.0372 8.06 37.0372C10.66 37.2238 12.038 39.7817 12.038 39.7817C14.3 43.8319 18.122 42.6328 19.604 41.9933C19.838 40.2614 20.514 39.089 21.242 38.4228C15.47 37.7567 9.412 35.4652 9.412 25.3132C9.412 22.3556 10.4 19.9841 12.09 18.0923C11.83 17.4262 10.92 14.655 12.35 11.0579C12.35 11.0579 14.534 10.3385 19.5 13.7757C21.554 13.1895 23.79 12.8964 26 12.8964C28.21 12.8964 30.446 13.1895 32.5 13.7757C37.466 10.3385 39.65 11.0579 39.65 11.0579C41.08 14.655 40.17 17.4262 39.91 18.0923C41.6 19.9841 42.588 22.3556 42.588 25.3132C42.588 35.4918 36.504 37.73 30.706 38.3962C31.642 39.2222 32.5 40.8476 32.5 43.3256V50.6264C32.5 51.3459 32.916 52.1985 34.242 51.9587C44.564 48.3882 52 38.4228 52 26.6455C52 23.1464 51.3275 19.6815 50.0209 16.4487C48.7142 13.2159 46.7991 10.2786 44.3848 7.80429C41.9705 5.33002 39.1042 3.36733 35.9498 2.02827C32.7953 0.689206 29.4144 0 26 0Z" fill="white"/>
</svg>
