<svg width="136" height="42" viewBox="0 0 136 42" fill="none" xmlns="http://www.w3.org/2000/svg">
<path d="M5.95677 12L5.95677 42L1.44532e-08 42L4.12948e-09 12L5.95677 12ZM5.95677 -2.04986e-09L5.95677 6L2.06474e-09 6L0 0L5.95677 -2.04986e-09Z" fill="white"/>
<path d="M40.8015 30L40.8015 36L34.8448 36L34.8448 30L40.8015 30ZM22.9312 6L22.9312 42L21.2038 42C19.9727 42 18.9601 41.6 18.1658 40.8C17.3716 40 16.9745 38.98 16.9745 37.74L16.9745 6L22.9312 6ZM34.8448 36L34.8448 42L22.9312 42L22.9312 36L34.8448 36ZM34.8448 12L34.8448 18L11.0177 18L11.0177 12L34.8448 12Z" fill="white"/>
<path d="M67.9234 12L73.8802 12L73.8802 42L67.9234 42L67.9234 12ZM44.0964 23.7C44.0964 21.14 44.7516 18.94 46.0621 17.1C47.3726 15.26 49.1596 13.86 51.4232 12.9C53.7265 11.9 56.268 11.4 59.0479 11.4C61.788 11.4 64.2898 11.9 66.5534 12.9C68.817 13.86 70.604 15.26 71.9145 17.1C73.225 18.94 73.8802 21.14 73.8802 23.7L73.8802 29.64C73.8802 32.2 73.225 34.42 71.9145 36.3C70.604 38.14 68.817 39.56 66.5534 40.56C64.2898 41.52 61.788 42 59.0479 42C56.268 42 53.7265 41.52 51.4232 40.56C49.1596 39.56 47.3726 38.14 46.0621 36.3C44.7516 34.42 44.0964 32.2 44.0964 29.64L44.0964 23.7ZM50.0531 28.8C50.0531 31.48 50.9665 33.36 52.7932 34.44C54.6597 35.48 56.7446 36 59.0479 36C61.2717 36 63.297 35.48 65.1238 34.44C66.9505 33.36 67.8639 31.48 67.8639 28.8L67.8639 24.54C67.8639 21.86 66.9505 20 65.1238 18.96C63.3367 17.92 61.3114 17.4 59.0479 17.4C56.7446 17.4 54.6597 17.92 52.7932 18.96C50.9665 20 50.0531 21.86 50.0531 24.54L50.0531 28.8ZM61.9667 23.7L61.9667 29.7L56.0099 29.7L56.0099 23.7L61.9667 23.7Z" fill="white"/>
<path d="M106.216 25.2C106.216 22.52 105.303 20.66 103.476 19.62C101.649 18.54 99.624 18 97.4001 18C95.0969 18 93.012 18.54 91.1455 19.62C89.3188 20.66 88.4054 22.52 88.4054 25.2L88.4054 29.46L82.4486 30.3L82.4486 24.36C82.4486 21.8 83.1039 19.6 84.4144 17.76C85.7249 15.88 87.5119 14.46 89.7755 13.5C92.0788 12.5 94.6203 12 97.4001 12C100.14 12 102.622 12.5 104.846 13.5C107.11 14.46 108.897 15.88 110.207 17.76C111.518 19.6 112.173 21.8 112.173 24.36L112.173 42L106.216 42L106.216 25.2ZM88.4054 23.4L88.4054 42L82.4486 42L82.4486 23.4L88.4054 23.4ZM136 36L136 42L130.043 42L130.043 36L136 36ZM129.984 25.2C129.984 22.52 129.07 20.66 127.244 19.62C125.417 18.54 123.392 18 121.168 18C118.864 18 116.779 18.54 114.913 19.62C113.047 20.66 112.113 22.52 112.113 25.2L112.113 29.46L106.216 30.3L106.216 24.36C106.216 21.8 106.871 19.6 108.182 17.76C109.492 15.88 111.279 14.46 113.543 13.5C115.846 12.5 118.388 12 121.168 12C123.908 12 126.41 12.5 128.673 13.5C130.937 14.46 132.724 15.88 134.034 17.76C135.345 19.6 136 21.8 136 24.36L136 36L129.984 36L129.984 25.2ZM84.2953 12L84.2953 18L78.3385 18L78.3385 12L84.2953 12Z" fill="white"/>
</svg>
