<svg width="15" height="20" viewBox="0 0 15 20" fill="none" xmlns="http://www.w3.org/2000/svg">
<path d="M15.0006 19.0004L15.0006 1.0004C15 0.818161 14.9498 0.639527 14.8552 0.483727C14.7607 0.327927 14.6254 0.200861 14.464 0.116207C14.3027 0.0315534 14.1212 -0.00748236 13.9393 0.00329988C13.7574 0.0140821 13.5819 0.0742761 13.4316 0.177403L0.431594 9.1774C-0.107406 9.5504 -0.107406 10.4484 0.431594 10.8224L13.4316 19.8224C13.5815 19.9266 13.7572 19.9877 13.9394 19.999C14.1216 20.0104 14.3035 19.9716 14.4652 19.8869C14.6269 19.8022 14.7623 19.6747 14.8567 19.5184C14.9511 19.3622 15.0009 19.183 15.0006 19.0004ZM2.75759 10.0004L13.0006 2.9084L13.0006 17.0924L2.75759 10.0004Z" fill="white"/>
</svg>
