<svg width="52" height="52" viewBox="0 0 52 52" fill="none" xmlns="http://www.w3.org/2000/svg">
<path fill-rule="evenodd" clip-rule="evenodd" d="M38.6764 5.50644C39.3212 5.45889 39.9641 5.61863 40.5022 5.96008L44.4311 8.45372L12.6591 10.7769L9.37444 7.65091L38.6764 5.50644ZM5.77778 12.0059V36.5299C5.77778 37.1247 5.98051 37.7036 6.35556 38.1795L8.66667 41.1103V14.7552L5.77778 12.0059ZM46.2222 44.063L14.4444 46.389V16.1628L46.2222 13.8369V44.063ZM52 44.063C51.9999 45.4485 51.4502 46.7828 50.461 47.7993C49.4717 48.8157 48.1157 49.4392 46.6642 49.5452L13.3582 51.9839C12.3893 52.0547 11.4173 51.8917 10.5321 51.5102C9.64689 51.1286 8.87712 50.5407 8.294 49.8009L1.73333 41.4759C0.608208 40.0482 0 38.3117 0 36.5271V7.91485C0.000101295 6.5294 0.549746 5.19504 1.53902 4.17863C2.52829 3.16222 3.88426 2.53867 5.33578 2.43268L38.2344 0.0242706C40.1669 -0.117103 42.0933 0.36206 43.706 1.38519L49.426 5.01431C50.2176 5.51629 50.8667 6.19651 51.3158 6.99459C51.7648 7.79266 51.9998 8.6839 52 9.58919V44.063ZM40.4444 20.4903C40.4444 19.7611 40.1401 19.0618 39.5983 18.5462C39.0565 18.0306 38.3217 17.741 37.5556 17.741C36.7894 17.741 36.0546 18.0306 35.5128 18.5462C34.971 19.0618 34.6667 19.7611 34.6667 20.4903V32.2574L27.0169 20.4243C26.7583 20.0242 26.3962 19.6939 25.9654 19.4648C25.5345 19.2357 25.0491 19.1155 24.5556 19.1156H23.1111C22.3449 19.1156 21.6101 19.4053 21.0684 19.9209C20.5266 20.4365 20.2222 21.1358 20.2222 21.865V41.1103C20.2222 41.8394 20.5266 42.5387 21.0684 43.0543C21.6101 43.5699 22.3449 43.8596 23.1111 43.8596C23.8773 43.8596 24.6121 43.5699 25.1539 43.0543C25.6956 42.5387 26 41.8394 26 41.1103V29.3431L33.6498 41.1762C33.9084 41.5763 34.2704 41.9067 34.7013 42.1357C35.1322 42.3648 35.6175 42.4851 36.1111 42.4849H37.5556C38.3217 42.4849 39.0565 42.1953 39.5983 41.6797C40.1401 41.1641 40.4444 40.4648 40.4444 39.7356V20.4903Z" fill="white"/>
</svg>
