<svg width="301" height="300" viewBox="0 0 301 300" fill="none" xmlns="http://www.w3.org/2000/svg">
<rect x="2.81909" y="2" width="296" height="296" rx="148" fill="#E7E7E7"/>
<rect x="2.81909" y="2" width="296" height="296" rx="148" stroke="white" stroke-width="4"/>
<path d="M185.819 125.001V115.001H175.819V105.001H185.819V95.0012H195.819V105.001H205.819V115.001H195.819V125.001H185.819ZM145.819 177.501C152.069 177.501 157.383 175.315 161.759 170.941C166.136 166.568 168.323 161.255 168.319 155.001C168.316 148.748 166.129 143.436 161.759 139.066C157.389 134.696 152.076 132.508 145.819 132.501C139.563 132.495 134.251 134.683 129.884 139.066C125.518 143.45 123.329 148.761 123.319 155.001C123.309 161.241 125.498 166.555 129.884 170.941C134.271 175.328 139.583 177.515 145.819 177.501ZM145.819 167.501C142.319 167.501 139.361 166.293 136.944 163.876C134.528 161.46 133.319 158.501 133.319 155.001C133.319 151.501 134.528 148.543 136.944 146.126C139.361 143.71 142.319 142.501 145.819 142.501C149.319 142.501 152.278 143.71 154.694 146.126C157.111 148.543 158.319 151.501 158.319 155.001C158.319 158.501 157.111 161.46 154.694 163.876C152.278 166.293 149.319 167.501 145.819 167.501ZM105.819 195.001C103.069 195.001 100.716 194.023 98.7592 192.066C96.8025 190.11 95.8225 187.755 95.8192 185.001V125.001C95.8192 122.251 96.7992 119.898 98.7592 117.941C100.719 115.985 103.073 115.005 105.819 115.001H121.569L130.819 105.001H165.819V125.001H175.819V135.001H195.819V185.001C195.819 187.751 194.841 190.106 192.884 192.066C190.928 194.026 188.573 195.005 185.819 195.001H105.819Z" fill="#D9D9D9"/>
</svg>
