<svg width="15" height="20" viewBox="0 0 15 20" fill="none" xmlns="http://www.w3.org/2000/svg">
<path d="M-0.000593229 0.999597L-0.000594016 18.9996C-2.2773e-05 19.1818 0.0502406 19.3605 0.144784 19.5163C0.239328 19.6721 0.374571 19.7991 0.535958 19.8838C0.697346 19.9684 0.878766 20.0075 1.06069 19.9967C1.24261 19.9859 1.41815 19.9257 1.56841 19.8226L14.5684 10.8226C15.1074 10.4496 15.1074 9.5516 14.5684 9.1776L1.56841 0.177597C1.41846 0.0734214 1.24284 0.0123307 1.06061 0.000961754C0.878386 -0.0104072 0.696528 0.0283804 0.5348 0.11311C0.373071 0.197841 0.237653 0.325272 0.143263 0.481561C0.0488729 0.637849 -0.000881231 0.817017 -0.000593229 0.999597ZM12.2424 9.9996L1.99941 17.0916L1.99941 2.9076L12.2424 9.9996Z" fill="white"/>
</svg>
