<svg width="1128" height="1136" viewBox="0 0 1128 1136" fill="none" xmlns="http://www.w3.org/2000/svg">
<g filter="url(#filter0_f_29_99)">
<path d="M652.197 114.019C666.813 90.9105 702.485 100.301 703.828 127.611L720.171 460.015C720.618 469.118 725.468 477.433 733.17 482.305L1014.44 660.197C1037.55 674.812 1028.16 710.485 1000.85 711.828L668.447 728.17C659.344 728.618 651.029 733.468 646.157 741.17L468.265 1022.44C453.65 1045.55 417.977 1036.16 416.634 1008.85L400.291 676.446C399.844 667.344 394.994 659.028 387.292 654.157L106.019 476.264C82.9109 461.649 92.3017 425.976 119.611 424.634L452.016 408.291C461.118 407.843 469.434 402.994 474.305 395.291L652.197 114.019Z" fill="url(#paint0_linear_29_99)" fill-opacity="0.22"/>
</g>
<defs>
<filter id="filter0_f_29_99" x="-7.05273" y="0.946777" width="1134.57" height="1134.57" filterUnits="userSpaceOnUse" color-interpolation-filters="sRGB">
<feFlood flood-opacity="0" result="BackgroundImageFix"/>
<feBlend mode="normal" in="SourceGraphic" in2="BackgroundImageFix" result="shape"/>
<feGaussianBlur stdDeviation="50" result="effect1_foregroundBlur_29_99"/>
</filter>
<linearGradient id="paint0_linear_29_99" x1="707.648" y1="397.122" x2="336.715" y2="802.549" gradientUnits="userSpaceOnUse">
<stop stop-color="#E5429F"/>
<stop offset="0.460074" stop-color="#EF7064"/>
<stop offset="1" stop-color="#F9A11B"/>
</linearGradient>
</defs>
</svg>
