<svg width="52" height="45" viewBox="0 0 52 45" fill="none" xmlns="http://www.w3.org/2000/svg">
<path fill-rule="evenodd" clip-rule="evenodd" d="M46.6137 0.302745C47.253 0.0346805 47.9528 -0.0577732 48.6402 0.0350059C49.3276 0.127785 49.9775 0.402406 50.5222 0.830285C51.0669 1.25816 51.4865 1.82366 51.7373 2.46791C51.9882 3.11216 52.0611 3.81161 51.9485 4.49347L46.0807 39.9497C45.5115 43.3698 41.7445 45.3311 38.5959 43.6275C35.9621 42.2023 32.0502 40.0064 28.5316 37.7151C26.7723 36.5682 21.3831 32.8955 22.0454 30.2821C22.6146 28.0476 31.6699 19.6507 36.8443 14.6584C38.8753 12.6971 37.9491 11.5656 35.5507 13.3698C29.5949 17.8491 20.0326 24.661 16.871 26.5785C14.082 28.2693 12.6279 28.5579 10.8893 28.2693C7.71739 27.7435 4.77572 26.9291 2.37478 25.9368C-0.869596 24.5966 -0.711776 20.1533 2.37219 18.8595L46.6137 0.302745Z" fill="white"/>
</svg>
