<svg width="1150" height="308" viewBox="0 0 1150 308" fill="none" xmlns="http://www.w3.org/2000/svg">
<path d="M305.668 62.4H389.668V-2.86102e-06H409.668V147H389.668V80.4H305.668V147H285.668V-2.86102e-06H305.668V62.4ZM425.715 111.4C425.715 91.4 439.915 75.2 463.715 75.2C483.515 75.2 496.315 77.8 507.315 83.2V76.2C507.315 61 494.315 53 479.715 53C467.515 53 460.715 54.2 452.715 58.4L451.515 66.4H435.515V46.8C449.115 39 460.115 34.4 479.715 34.4C507.315 34.4 527.315 48.8 527.315 80V147H511.315L508.115 130.4C497.115 139.2 483.915 147.6 463.715 147.6C439.915 147.6 425.715 131.4 425.715 111.4ZM445.115 111.4C445.115 120.6 452.515 129.8 467.715 129.8C483.515 129.8 496.515 121.2 507.315 110.8V101C496.715 95.8 481.515 93 465.715 93C450.515 93 445.115 102.2 445.115 111.4ZM639.041 147H619.041V108H575.441C555.241 108 539.441 91.6 539.441 72V35H559.441V72C559.441 81 566.441 88.6 575.441 88.6H619.041V35H639.041V147ZM672.973 147H652.973V35H672.973V79.4H734.573V35H754.573V147H734.573V98H672.973V147ZM870.252 147H850.252V53.6H844.452L803.652 147H768.652V35H788.652V128.4H792.652L833.852 35H870.252V147Z" fill="white"/>
<path d="M106.337 307L67.7367 240.4H60.5367L21.9367 307H0.936719L45.3367 229.4L4.93672 160H25.9367L62.5367 222.4H65.5367L102.337 160H123.337L82.7367 229.4L127.337 307H106.337ZM134.27 271.4C134.27 251.4 148.47 235.2 172.27 235.2C192.07 235.2 204.87 237.8 215.87 243.2V236.2C215.87 221 202.87 213 188.27 213C176.07 213 169.27 214.2 161.27 218.4L160.07 226.4H144.07V206.8C157.67 199 168.67 194.4 188.27 194.4C215.87 194.4 235.87 208.8 235.87 240V307H219.87L216.67 290.4C205.67 299.2 192.47 307.6 172.27 307.6C148.47 307.6 134.27 291.4 134.27 271.4ZM153.67 271.4C153.67 280.6 161.07 289.8 176.27 289.8C192.07 289.8 205.07 281.2 215.87 270.8V261C205.27 255.8 190.07 253 174.27 253C159.07 253 153.67 262.2 153.67 271.4ZM303.749 258H269.949V307H249.949V195H269.949V239.4H304.149C306.949 239 310.349 235.4 312.149 230.6L318.949 213C324.149 201.4 334.149 195 344.949 195L352.749 197V215H344.949C341.749 215 338.549 217.8 336.549 222.8L329.749 240.4C328.549 243.6 323.749 247.6 321.949 248.6C323.749 249.2 327.949 253.2 329.349 256L340.349 279.8C342.549 284.8 345.549 287.6 348.749 287.6H356.549V305.6L348.749 307.6C337.749 307.6 328.149 301.2 322.749 289.6L311.749 265.8C309.549 261.2 306.949 258.4 303.749 258ZM366.605 271.4C366.605 251.4 380.805 235.2 404.605 235.2C424.405 235.2 437.205 237.8 448.205 243.2V236.2C448.205 221 435.205 213 420.605 213C408.405 213 401.605 214.2 393.605 218.4L392.405 226.4H376.405V206.8C390.005 199 401.005 194.4 420.605 194.4C448.205 194.4 468.205 208.8 468.205 240V307H452.205L449.005 290.4C438.005 299.2 424.805 307.6 404.605 307.6C380.805 307.6 366.605 291.4 366.605 271.4ZM386.005 271.4C386.005 280.6 393.405 289.8 408.605 289.8C424.405 289.8 437.405 281.2 448.205 270.8V261C437.605 255.8 422.405 253 406.605 253C391.405 253 386.005 262.2 386.005 271.4ZM538.379 307H518.379V213.6H478.379V195H578.379V213.6H538.379V307ZM640.246 194.4C671.246 194.4 698.246 219.8 698.246 250.8C698.246 282.2 671.246 307.6 640.246 307.6C609.046 307.6 582.046 282.2 582.046 250.8C582.046 219.8 609.046 194.4 640.246 194.4ZM640.246 214.4C619.846 214.4 602.046 230.8 602.046 250.8C602.046 271.2 619.846 287.6 640.246 287.6C660.646 287.6 678.246 271.2 678.246 250.8C678.246 230.8 660.646 214.4 640.246 214.4ZM727.98 307H707.98V195H727.98V239.4H789.58V195H809.58V307H789.58V258H727.98V307ZM925.26 307H905.26V213.6H899.46L858.66 307H823.66V195H843.66V288.4H847.66L888.86 195H925.26V307ZM993.285 307H973.285V213.6H933.285V195H1033.29V213.6H993.285V307ZM1047.21 307V195H1067.21V235.4H1113.81C1133.61 235.4 1149.81 251.2 1149.81 271C1149.81 291 1133.61 307 1113.81 307H1047.21ZM1067.21 287.6H1113.81C1123.01 287.6 1130.41 280.2 1130.41 271C1130.41 261.8 1123.01 254.8 1113.81 254.8H1067.21V287.6Z" fill="url(#paint0_linear_29_113)"/>
<defs>
<linearGradient id="paint0_linear_29_113" x1="7.76922" y1="176.347" x2="1160.49" y2="273.417" gradientUnits="userSpaceOnUse">
<stop stop-color="#E5469A"/>
<stop offset="1" stop-color="#FBA31C"/>
</linearGradient>
</defs>
</svg>
