<svg width="16" height="16" viewBox="0 0 16 16" fill="none" xmlns="http://www.w3.org/2000/svg">
<path d="M7.99353 0C9.0544 0 10.0718 0.421427 10.822 1.17157C11.5721 1.92172 11.9935 2.93913 11.9935 4C11.9935 5.06087 11.5721 6.07828 10.822 6.82843C10.0718 7.57857 9.0544 8 7.99353 8C6.93266 8 5.91525 7.57857 5.1651 6.82843C4.41496 6.07828 3.99353 5.06087 3.99353 4C3.99353 2.93913 4.41496 1.92172 5.1651 1.17157C5.91525 0.421427 6.93266 0 7.99353 0ZM7.99353 10C12.4135 10 15.9935 11.79 15.9935 14V16H-0.00646973V14C-0.00646973 11.79 3.57353 10 7.99353 10Z" fill="#E7E7E7"/>
</svg>
