<svg width="24" height="24" viewBox="0 0 24 24" fill="none" xmlns="http://www.w3.org/2000/svg">
<path d="M10.3185 14.763C9.07081 14.4003 7.97457 13.6423 7.19463 12.603C6.41469 11.5637 5.9932 10.2994 5.99353 9V1H17.9935V10M5.99353 3H0.99353V7C0.99353 9.509 2.78453 11 4.99353 11H5.99353M20.0275 10.885C21.7355 10.49 22.9935 9.103 22.9935 7V3H17.9935M9.99353 19H4.99353V23H16.4935M16.4935 23C14.7696 23 13.1163 22.3152 11.8973 21.0962C10.6783 19.8772 9.99353 18.2239 9.99353 16.5C9.99353 14.7761 10.6783 13.1228 11.8973 11.9038C13.1163 10.6848 14.7696 10 16.4935 10C18.2174 10 19.8707 10.6848 21.0897 11.9038C22.3087 13.1228 22.9935 14.7761 22.9935 16.5C22.9935 18.2239 22.3087 19.8772 21.0897 21.0962C19.8707 22.3152 18.2174 23 16.4935 23ZM19.9935 14L15.4935 18.5L12.9935 16M10.1995 15.424C9.53633 15.7568 8.97877 16.2675 8.58919 16.899C8.19961 17.5305 7.99337 18.258 7.99353 19" stroke="#E7E7E7" stroke-width="2"/>
</svg>
