<svg width="18" height="22" viewBox="0 0 18 22" fill="none" xmlns="http://www.w3.org/2000/svg">
<path d="M15.7435 2.75H13.4935V2C13.4935 1.60218 13.3355 1.22064 13.0542 0.93934C12.7729 0.658035 12.3914 0.5 11.9935 0.5H5.99353C5.59571 0.5 5.21417 0.658035 4.93287 0.93934C4.65157 1.22064 4.49353 1.60218 4.49353 2V2.75H2.24353C1.84571 2.75 1.46417 2.90804 1.18287 3.18934C0.901565 3.47064 0.74353 3.85218 0.74353 4.25V20C0.74353 20.3978 0.901565 20.7794 1.18287 21.0607C1.46417 21.342 1.84571 21.5 2.24353 21.5H15.7435C16.1414 21.5 16.5229 21.342 16.8042 21.0607C17.0855 20.7794 17.2435 20.3978 17.2435 20V4.25C17.2435 3.85218 17.0855 3.47064 16.8042 3.18934C16.5229 2.90804 16.1414 2.75 15.7435 2.75ZM5.99353 2H11.9935V5H5.99353V2ZM15.7435 20H2.24353V4.25H4.49353V6.5H13.4935V4.25H15.7435V20Z" fill="white"/>
</svg>
