<svg width="18" height="20" viewBox="0 0 18 20" fill="none" xmlns="http://www.w3.org/2000/svg">
<path d="M7.13956 1.24792C7.28897 0.878636 7.54526 0.562381 7.87558 0.339697C8.2059 0.117013 8.59519 -0.00195313 8.99356 -0.00195312C9.39193 -0.00195312 9.78122 0.117013 10.1115 0.339697C10.4419 0.562381 10.6981 0.878636 10.8476 1.24792C12.3266 1.65416 13.6312 2.53491 14.5609 3.75479C15.4907 4.97467 15.994 6.46614 15.9936 7.99992V12.6969L17.8256 15.4449C17.926 15.5955 17.9837 15.7706 17.9925 15.9514C18.0013 16.1322 17.9608 16.3121 17.8754 16.4717C17.79 16.6313 17.6629 16.7648 17.5076 16.8578C17.3523 16.9508 17.1746 17 16.9936 16.9999H12.4586C12.3382 17.833 11.9216 18.5949 11.2853 19.1459C10.6489 19.6969 9.83532 20.0001 8.99356 20.0001C8.1518 20.0001 7.33822 19.6969 6.70186 19.1459C6.0655 18.5949 5.64896 17.833 5.52856 16.9999H0.993558C0.812515 17 0.634861 16.9508 0.479549 16.8578C0.324237 16.7648 0.197094 16.6313 0.111684 16.4717C0.0262742 16.3121 -0.0141975 16.1322 -0.00541395 15.9514C0.00336965 15.7706 0.0610792 15.5955 0.161558 15.4449L1.99356 12.6969V7.99992C1.99356 4.77592 4.17356 2.05992 7.13956 1.24792ZM7.57956 16.9999C7.68284 17.2926 7.87434 17.546 8.12768 17.7252C8.38102 17.9045 8.68372 18.0007 8.99406 18.0007C9.3044 18.0007 9.6071 17.9045 9.86043 17.7252C10.1138 17.546 10.3053 17.2926 10.4086 16.9999H7.57956ZM8.99356 2.99992C7.66748 2.99992 6.39571 3.52671 5.45802 4.46439C4.52034 5.40207 3.99356 6.67384 3.99356 7.99992V12.9999C3.9936 13.1975 3.93514 13.3906 3.82556 13.5549L2.86256 14.9999H15.1236L14.1606 13.5549C14.0513 13.3905 13.9932 13.1974 13.9936 12.9999V7.99992C13.9936 6.67384 13.4668 5.40207 12.5291 4.46439C11.5914 3.52671 10.3196 2.99992 8.99356 2.99992Z" fill="white"/>
</svg>
