<svg width="22" height="18" viewBox="0 0 22 18" fill="none" xmlns="http://www.w3.org/2000/svg">
<path d="M13.5035 0.0540368C13.6853 0.104912 13.8554 0.191125 14.0039 0.307748C14.1524 0.42437 14.2764 0.569116 14.369 0.73371C14.4615 0.898305 14.5207 1.07952 14.5431 1.267C14.5656 1.45448 14.5509 1.64455 14.4998 1.82634L10.2549 16.9503C10.152 17.3173 9.90754 17.6284 9.57526 17.8152C9.24298 18.0019 8.85012 18.049 8.4831 17.9461C8.11609 17.8432 7.80498 17.5988 7.61822 17.2665C7.43147 16.9342 7.38436 16.5413 7.48726 16.1743L11.7322 1.04844C11.7831 0.866692 11.8694 0.696766 11.9861 0.548371C12.1028 0.399977 12.2475 0.276022 12.4121 0.183588C12.5767 0.0911542 12.7579 0.0320524 12.9453 0.00965921C13.1327 -0.012734 13.3227 0.00202025 13.5045 0.0530788L13.5035 0.0540368ZM6.74002 3.91957C7.00912 4.18901 7.16027 4.55425 7.16027 4.93505C7.16027 5.31586 7.00912 5.6811 6.74002 5.95053L3.32955 8.99995L6.74193 12.0482C7.01138 12.3178 7.16271 12.6834 7.16262 13.0645C7.16253 13.4457 7.01103 13.8112 6.74145 14.0806C6.47188 14.3501 6.1063 14.5014 5.72516 14.5013C5.34401 14.5012 4.9785 14.3497 4.70905 14.0801L0.644255 10.0153C0.375152 9.7459 0.223999 9.38066 0.223999 8.99985C0.223999 8.61905 0.375152 8.25381 0.644255 7.98437L4.7081 3.91957C4.84155 3.78604 5 3.68011 5.17441 3.60783C5.34881 3.53556 5.53575 3.49836 5.72454 3.49836C5.91332 3.49836 6.10026 3.53556 6.27467 3.60783C6.44907 3.68011 6.60657 3.78604 6.74002 3.91957ZM15.2471 5.95053C15.1059 5.81898 14.9926 5.66033 14.9141 5.48406C14.8356 5.30779 14.7933 5.11751 14.7899 4.92456C14.7865 4.73161 14.822 4.53996 14.8943 4.36102C14.9666 4.18209 15.0741 4.01955 15.2106 3.88309C15.347 3.74664 15.5096 3.63907 15.6885 3.56679C15.8675 3.49452 16.0591 3.45903 16.2521 3.46243C16.445 3.46583 16.6353 3.50807 16.8116 3.58661C16.9878 3.66515 17.1465 3.77839 17.278 3.91957L21.3428 7.98341C21.6122 8.25289 21.7636 8.61833 21.7636 8.99937C21.7636 9.38041 21.6122 9.74586 21.3428 10.0153L17.279 14.0801C17.1456 14.2136 16.9872 14.3195 16.8128 14.3918C16.6385 14.464 16.4516 14.5013 16.2629 14.5013C16.0742 14.5013 15.8873 14.4642 15.7129 14.392C15.5385 14.3199 15.3801 14.214 15.2466 14.0806C15.1131 13.9472 15.0072 13.7888 14.9349 13.6144C14.8627 13.4401 14.8255 13.2532 14.8254 13.0645C14.8254 12.8758 14.8625 12.6889 14.9347 12.5145C15.0069 12.3401 15.1127 12.1817 15.2461 12.0482L18.6576 8.99995L15.2471 5.95053Z" fill="#E7E7E7"/>
</svg>
