<svg width="20" height="20" viewBox="0 0 20 20" fill="none" xmlns="http://www.w3.org/2000/svg">
<path d="M9.99353 9C11.3196 9 12.5914 9.52678 13.5291 10.4645C14.4667 11.4021 14.9935 12.6739 14.9935 14V20H12.9935V14C12.9936 13.2348 12.7012 12.4985 12.1762 11.9417C11.6513 11.385 10.9334 11.0499 10.1695 11.005L9.99353 11C9.22832 11 8.49202 11.2923 7.93527 11.8173C7.37852 12.3422 7.04342 13.0601 6.99853 13.824L6.99353 14V20H4.99353V14C4.99353 12.6739 5.52031 11.4021 6.458 10.4645C7.39568 9.52678 8.66745 9 9.99353 9ZM3.49353 12C3.77353 12.0007 4.04353 12.032 4.30353 12.094C4.13318 12.6032 4.03194 13.1329 4.00253 13.669L3.99353 14V14.086C3.87856 14.0449 3.75901 14.0181 3.63753 14.006L3.49353 14C3.1208 14 2.76143 14.1388 2.48542 14.3892C2.20942 14.6397 2.03656 14.984 2.00053 15.355L1.99353 15.5V20H-0.00646973V15.5C-0.00646973 14.5717 0.362279 13.6815 1.01866 13.0251C1.67503 12.3687 2.56527 12 3.49353 12ZM16.4935 12C17.4218 12 18.312 12.3687 18.9684 13.0251C19.6248 13.6815 19.9935 14.5717 19.9935 15.5V20H17.9935V15.5C17.9935 15.1273 17.8548 14.7679 17.6043 14.4919C17.3538 14.2159 17.0095 14.043 16.6385 14.007L16.4935 14C16.3175 14.0007 16.1509 14.029 15.9935 14.085V14C15.9935 13.334 15.8855 12.694 15.6855 12.096C15.9435 12.033 16.2155 12 16.4935 12ZM3.49353 6C4.15657 6 4.79246 6.26339 5.2613 6.73223C5.73014 7.20107 5.99353 7.83696 5.99353 8.5C5.99353 9.16304 5.73014 9.79893 5.2613 10.2678C4.79246 10.7366 4.15657 11 3.49353 11C2.83049 11 2.1946 10.7366 1.72576 10.2678C1.25692 9.79893 0.99353 9.16304 0.99353 8.5C0.99353 7.83696 1.25692 7.20107 1.72576 6.73223C2.1946 6.26339 2.83049 6 3.49353 6ZM16.4935 6C17.1566 6 17.7925 6.26339 18.2613 6.73223C18.7301 7.20107 18.9935 7.83696 18.9935 8.5C18.9935 9.16304 18.7301 9.79893 18.2613 10.2678C17.7925 10.7366 17.1566 11 16.4935 11C15.8305 11 15.1946 10.7366 14.7258 10.2678C14.2569 9.79893 13.9935 9.16304 13.9935 8.5C13.9935 7.83696 14.2569 7.20107 14.7258 6.73223C15.1946 6.26339 15.8305 6 16.4935 6ZM3.49353 8C3.36092 8 3.23375 8.05268 3.13998 8.14645C3.04621 8.24021 2.99353 8.36739 2.99353 8.5C2.99353 8.63261 3.04621 8.75979 3.13998 8.85355C3.23375 8.94732 3.36092 9 3.49353 9C3.62614 9 3.75332 8.94732 3.84708 8.85355C3.94085 8.75979 3.99353 8.63261 3.99353 8.5C3.99353 8.36739 3.94085 8.24021 3.84708 8.14645C3.75332 8.05268 3.62614 8 3.49353 8ZM16.4935 8C16.3609 8 16.2337 8.05268 16.14 8.14645C16.0462 8.24021 15.9935 8.36739 15.9935 8.5C15.9935 8.63261 16.0462 8.75979 16.14 8.85355C16.2337 8.94732 16.3609 9 16.4935 9C16.6261 9 16.7533 8.94732 16.8471 8.85355C16.9409 8.75979 16.9935 8.63261 16.9935 8.5C16.9935 8.36739 16.9409 8.24021 16.8471 8.14645C16.7533 8.05268 16.6261 8 16.4935 8ZM9.99353 0C11.0544 0 12.0718 0.421427 12.822 1.17157C13.5721 1.92172 13.9935 2.93913 13.9935 4C13.9935 5.06087 13.5721 6.07828 12.822 6.82843C12.0718 7.57857 11.0544 8 9.99353 8C8.93266 8 7.91525 7.57857 7.1651 6.82843C6.41496 6.07828 5.99353 5.06087 5.99353 4C5.99353 2.93913 6.41496 1.92172 7.1651 1.17157C7.91525 0.421427 8.93266 0 9.99353 0ZM9.99353 2C9.4631 2 8.95439 2.21071 8.57932 2.58579C8.20424 2.96086 7.99353 3.46957 7.99353 4C7.99353 4.53043 8.20424 5.03914 8.57932 5.41421C8.95439 5.78929 9.4631 6 9.99353 6C10.524 6 11.0327 5.78929 11.4077 5.41421C11.7828 5.03914 11.9935 4.53043 11.9935 4C11.9935 3.46957 11.7828 2.96086 11.4077 2.58579C11.0327 2.21071 10.524 2 9.99353 2Z" fill="#E7E7E7"/>
</svg>
